<?xml version="1.0" standalone="no"?>
<!DOCTYPE svg PUBLIC "-//W3C//DTD SVG 20010904//EN"
 "http://www.w3.org/TR/2001/REC-SVG-20010904/DTD/svg10.dtd">
<svg version="1.0" xmlns="http://www.w3.org/2000/svg"
 width="512.000000pt" height="512.000000pt" viewBox="0 0 512.000000 512.000000"
 preserveAspectRatio="xMidYMid meet">

<g transform="translate(0.000000,512.000000) scale(0.100000,-0.100000)"
fill="#000000" stroke="none">
<path d="M2505 4768 c-50 -27 -79 -75 -96 -156 -15 -72 0 -154 40 -215 31 -48
67 -67 129 -67 55 0 86 17 77 42 -6 14 -15 16 -51 11 -41 -5 -46 -3 -78 31
-27 28 -36 47 -41 91 -11 89 2 159 36 196 26 27 34 31 74 27 48 -3 66 12 44
38 -14 17 -105 18 -134 2z"/>
<path d="M2812 4718 c-6 -24 -13 -59 -16 -78 -3 -19 -10 -60 -15 -90 -6 -30
-14 -80 -20 -110 -5 -30 -12 -67 -16 -81 -5 -22 -2 -26 29 -36 39 -12 40 -12
51 62 12 75 27 135 35 135 4 0 17 -28 29 -62 13 -35 30 -83 38 -108 20 -56 21
-56 61 -65 24 -5 32 -3 32 7 0 8 -20 65 -46 127 -52 130 -58 103 53 220 35 36
63 69 63 74 0 4 -16 7 -35 7 -28 0 -42 -8 -77 -47 -80 -87 -109 -116 -114
-111 -2 3 1 36 7 74 19 116 18 119 -17 122 -29 3 -32 0 -42 -40z"/>
<path d="M2070 4721 c-22 -6 -26 -14 -32 -71 -3 -36 -14 -136 -23 -223 -9 -88
-14 -161 -11 -164 3 -3 16 -3 29 1 21 5 25 13 30 62 3 31 8 58 10 61 9 8 131
34 142 29 6 -2 22 -25 35 -51 22 -43 26 -46 54 -41 16 4 32 8 35 11 7 7 -45
100 -136 242 -18 29 -33 55 -33 59 0 10 -61 94 -68 93 -4 -1 -18 -4 -32 -8z
m84 -172 c25 -49 36 -83 30 -89 -12 -11 -95 -30 -106 -24 -7 5 -1 163 7 191 8
25 31 -1 69 -78z"/>
<path d="M1598 4567 c-56 -27 -88 -55 -88 -77 0 -9 9 -34 19 -56 10 -21 33
-69 50 -106 17 -38 45 -98 61 -134 l31 -67 44 7 c59 8 136 47 169 86 57 68 13
179 -71 180 -37 0 -42 14 -19 58 17 36 4 84 -30 111 -35 28 -105 27 -166 -2z
m95 -29 c32 -17 46 -39 46 -73 0 -16 -5 -37 -12 -46 -16 -21 -75 -51 -87 -44
-15 9 -61 118 -55 132 4 13 58 42 78 43 5 0 18 -5 30 -12z m121 -199 c38 -45
35 -91 -7 -123 -19 -15 -46 -26 -61 -26 -23 0 -30 9 -56 65 -17 36 -30 70 -30
75 0 14 60 38 97 39 23 1 38 -7 57 -30z"/>
<path d="M3505 4530 c-44 -10 -68 -25 -105 -67 -43 -48 -79 -129 -86 -190 -10
-89 52 -168 136 -175 29 -2 36 1 38 17 2 16 -6 24 -33 34 -51 18 -69 50 -62
111 11 89 69 179 134 206 35 15 57 10 94 -22 13 -12 18 -12 35 0 18 14 18 15
-1 36 -37 41 -98 61 -150 50z"/>
<path d="M1215 4329 c-47 -25 -87 -61 -105 -93 -11 -22 -4 -35 110 -185 68
-89 127 -161 132 -161 18 0 94 43 121 69 89 82 74 205 -39 318 -74 74 -145 91
-219 52z m155 -98 c86 -88 114 -155 86 -208 -19 -38 -60 -60 -80 -44 -22 19
-196 249 -196 260 0 20 56 50 94 51 34 0 45 -7 96 -59z"/>
<path d="M3782 4309 c-86 -43 -164 -146 -177 -233 -12 -79 45 -156 128 -171
107 -20 267 146 267 279 0 70 -79 146 -152 146 -13 0 -42 -10 -66 -21z m136
-59 c44 -42 20 -116 -67 -212 -80 -87 -135 -98 -176 -34 -16 24 -16 29 1 72
10 25 22 51 29 58 6 6 21 26 34 44 32 46 98 92 131 92 14 0 36 -9 48 -20z"/>
<path d="M930 4073 c-13 -16 -41 -48 -62 -72 -21 -24 -38 -47 -38 -51 0 -5 73
-72 162 -150 l162 -143 68 74 c70 77 79 95 52 106 -11 4 -30 -9 -60 -41 l-44
-48 -37 30 c-21 16 -46 39 -57 50 -18 21 -18 22 18 63 42 49 43 55 16 64 -14
5 -28 -3 -51 -29 -17 -20 -36 -36 -42 -36 -14 0 -97 69 -97 81 0 6 16 30 36
55 52 63 27 108 -26 47z"/>
<path d="M2686 3973 c32 -49 69 -110 84 -138 25 -46 32 -65 45 -132 20 -111
103 -368 151 -471 45 -96 94 -217 94 -231 0 -6 12 -36 26 -68 52 -117 132
-381 154 -508 13 -72 9 -182 -9 -290 -6 -33 -13 -107 -17 -165 -3 -58 -12
-129 -21 -159 -11 -37 -16 -104 -17 -217 -1 -116 -5 -167 -13 -176 -7 -6 -13
-22 -13 -34 0 -13 -4 -26 -10 -29 -5 -3 -10 -16 -11 -28 0 -21 -1 -21 -8 -2
-5 11 -5 28 0 37 5 9 9 24 9 33 0 13 -4 14 -20 5 -17 -9 -22 -7 -30 15 -5 14
-14 25 -20 25 -12 0 -111 97 -126 125 -10 19 -12 19 -28 2 -16 -15 -36 -23
-36 -13 0 2 6 19 13 37 15 37 16 63 5 67 -20 6 -38 1 -38 -11 0 -7 -36 -28
-80 -46 -43 -18 -85 -40 -91 -48 -16 -18 -124 -68 -169 -78 -19 -4 -60 -17
-90 -28 -45 -17 -74 -21 -165 -19 -60 1 -132 5 -160 8 -59 8 -61 7 -56 -20 5
-31 -74 57 -105 116 -18 37 -24 63 -24 116 0 67 -1 69 -46 123 -98 113 -115
167 -97 295 9 60 8 69 -28 220 -17 71 0 127 61 199 54 64 64 99 54 204 -6 60
-4 75 19 123 13 31 41 74 61 96 57 63 94 77 276 102 36 5 109 23 164 39 54 17
111 31 127 31 22 0 30 6 35 26 9 35 -4 139 -25 204 -10 30 -28 85 -40 122 -11
36 -41 108 -64 160 -24 51 -49 111 -55 133 -21 76 -52 220 -59 268 -6 46 -7
48 -32 42 -14 -3 -41 -9 -59 -12 -18 -3 -35 -9 -38 -14 -3 -5 -16 -9 -28 -9
-28 0 -78 -24 -69 -33 3 -4 -1 -7 -9 -7 -9 0 -21 -7 -28 -15 -7 -8 -16 -13
-20 -10 -5 3 -14 0 -22 -7 -7 -7 -49 -31 -93 -52 -372 -182 -657 -527 -765
-926 -52 -194 -65 -439 -35 -627 35 -218 143 -468 278 -643 139 -181 332 -337
534 -431 143 -67 208 -89 336 -115 90 -18 96 -15 98 46 1 73 8 75 77 30 35
-22 67 -40 72 -40 15 0 12 -16 -7 -31 -14 -12 -5 -15 68 -19 98 -6 196 2 292
24 77 17 217 64 232 77 5 5 19 9 31 9 12 0 53 16 91 36 376 198 656 561 752
974 95 407 1 853 -252 1196 -75 103 -229 251 -339 327 -93 65 -371 207 -404
207 -10 0 -14 5 -10 15 4 11 -1 15 -19 15 -13 0 -27 5 -30 10 -3 6 -19 10 -36
10 -16 0 -37 4 -47 9 -19 10 -127 31 -160 31 -20 0 -17 -8 34 -87z m-458 -189
c-4 -3 0 -17 7 -31 8 -15 12 -30 9 -34 -2 -4 6 -16 19 -26 13 -10 23 -26 21
-35 -1 -9 8 -25 20 -36 13 -10 45 -63 71 -118 27 -54 53 -100 57 -102 4 -2 8
-17 8 -33 0 -16 5 -29 10 -29 6 0 10 -10 10 -23 0 -13 3 -27 7 -30 3 -4 8 -23
10 -41 5 -48 -43 -102 -103 -117 -25 -6 -47 -15 -50 -20 -3 -5 -23 -9 -44 -9
-21 0 -42 -4 -45 -10 -3 -5 -21 -10 -40 -10 -19 0 -37 -4 -40 -10 -3 -5 -24
-10 -45 -10 -21 0 -42 -4 -45 -10 -3 -5 -15 -10 -26 -10 -10 0 -19 -3 -19 -7
0 -10 -49 -33 -70 -33 -9 0 -25 -9 -35 -20 -10 -11 -23 -20 -30 -20 -14 0 -65
-52 -65 -67 0 -6 -7 -16 -15 -23 -19 -16 -45 -68 -45 -92 0 -10 -4 -18 -10
-18 -5 0 -10 -18 -10 -40 0 -22 -4 -40 -10 -40 -5 0 -10 -15 -10 -33 0 -18 -4
-37 -8 -42 -4 -6 -14 -28 -21 -50 -8 -22 -27 -53 -43 -68 -16 -15 -26 -32 -23
-36 2 -5 -5 -11 -17 -14 -18 -5 -19 -8 -8 -21 10 -13 10 -16 -4 -16 -9 0 -16
5 -16 12 0 6 -3 8 -6 5 -4 -4 -1 -14 7 -23 12 -14 9 -16 -26 -13 -22 1 -48 7
-58 12 -10 4 -32 9 -48 9 -16 1 -32 5 -35 10 -3 4 -16 8 -29 8 -13 0 -26 4
-29 9 -3 4 -24 11 -45 15 -25 4 -44 14 -51 25 -23 44 -5 264 35 429 27 112 94
257 177 380 58 88 229 262 303 310 28 17 55 35 61 39 35 27 187 103 204 103 6
0 18 4 28 9 72 37 112 42 137 18 24 -24 33 -12 10 13 -17 19 -17 20 0 20 10 0
16 -3 13 -6z m780 -43 c9 -5 53 -27 97 -47 44 -21 82 -42 83 -46 2 -4 8 -8 14
-8 18 0 161 -106 224 -167 70 -66 137 -148 188 -228 44 -68 118 -225 136 -285
7 -25 16 -56 20 -70 21 -64 34 -176 35 -294 l0 -129 -47 -16 c-26 -9 -50 -19
-54 -23 -4 -5 -22 -8 -40 -8 -18 0 -36 -4 -39 -10 -3 -5 -20 -10 -36 -10 -17
0 -38 -4 -48 -9 -10 -6 -41 -13 -69 -17 -43 -5 -52 -4 -52 9 0 8 6 18 13 20 7
4 3 8 -10 12 -13 4 -23 15 -23 26 0 10 -9 34 -20 54 -11 20 -20 44 -20 55 0
10 -5 22 -11 25 -6 4 -8 13 -5 20 3 8 -2 19 -9 25 -8 7 -13 16 -10 20 3 4 -2
13 -9 20 -8 6 -18 26 -22 43 -4 18 -8 34 -9 37 -5 22 -41 90 -47 90 -5 0 -8 7
-8 15 0 8 -4 23 -9 33 -39 77 -51 106 -51 122 0 11 -4 22 -10 25 -5 3 -10 14
-10 24 0 18 -12 47 -51 124 -10 22 -19 47 -19 57 0 10 -3 20 -7 22 -13 5 -53
88 -53 108 0 11 -4 21 -9 25 -5 3 -12 31 -16 63 -3 31 -11 65 -16 75 -6 10
-10 62 -11 115 0 62 -4 100 -12 104 -17 11 31 10 52 -1z m92 -2373 c0 -23 -12
-58 -19 -58 -4 0 -5 16 -3 35 4 32 22 51 22 23z m-803 -74 c-3 -3 -12 -4 -19
-1 -8 3 -5 6 6 6 11 1 17 -2 13 -5z m810 -26 c-3 -7 -5 -2 -5 12 0 14 2 19 5
13 2 -7 2 -19 0 -25z m-782 12 c3 -5 1 -10 -4 -10 -6 0 -11 5 -11 10 0 6 2 10
4 10 3 0 8 -4 11 -10z"/>
<path d="M2215 3721 c-3 -5 -1 -12 5 -16 5 -3 10 1 10 9 0 18 -6 21 -15 7z"/>
<path d="M4195 3991 c-9 -9 -247 -146 -307 -178 -31 -16 -36 -34 -14 -52 16
-14 38 -7 93 31 23 15 44 28 48 28 4 0 25 13 48 29 58 39 107 63 107 52 0 -8
-95 -136 -173 -234 -27 -32 -29 -39 -16 -51 12 -12 20 -12 59 0 25 8 54 19 65
24 44 19 185 70 195 70 23 0 5 -20 -99 -110 -60 -52 -112 -101 -115 -108 -6
-14 14 -52 28 -52 10 0 94 74 229 202 l98 93 -24 29 -24 29 -99 -37 c-54 -21
-121 -46 -148 -57 -84 -33 -86 -23 -16 64 155 193 151 186 126 220 -14 18 -46
23 -61 8z"/>
<path d="M672 3734 c-51 -83 -60 -104 -44 -104 5 0 56 -30 113 -66 184 -117
232 -145 247 -142 8 2 37 38 64 82 46 73 49 80 33 95 -15 15 -18 14 -33 -5 -9
-12 -25 -36 -34 -53 -9 -17 -24 -31 -32 -31 -23 0 -116 61 -116 77 0 8 11 30
24 50 14 19 22 42 19 49 -10 28 -39 13 -63 -31 -14 -25 -28 -45 -33 -45 -10 0
-117 68 -117 75 0 2 14 26 30 52 35 55 36 59 12 72 -16 8 -26 -2 -70 -75z"/>
<path d="M543 3488 c-6 -7 -24 -49 -42 -92 -25 -64 -29 -82 -19 -91 14 -13
326 -139 370 -150 24 -6 29 -3 38 20 6 15 8 30 6 34 -3 4 -38 20 -78 36 -102
39 -103 41 -79 102 18 45 18 52 5 57 -27 10 -31 7 -48 -39 -10 -25 -21 -47
-26 -50 -11 -7 -113 33 -121 47 -4 6 2 32 13 59 19 46 19 79 0 79 -5 0 -14 -6
-19 -12z"/>
<path d="M4400 3449 c-125 -49 -160 -63 -192 -80 -10 -5 -24 -9 -32 -9 -20 0
-26 -24 -12 -51 14 -27 29 -27 91 2 71 33 80 30 112 -31 38 -74 85 -99 152
-81 50 13 96 55 107 96 13 51 -55 206 -88 204 -7 0 -69 -22 -138 -50z m168
-54 c25 -55 9 -99 -43 -121 -65 -27 -103 -13 -134 49 -18 33 -13 38 64 70 79
33 99 33 113 2z"/>
<path d="M4270 3017 c0 -31 25 -47 72 -47 47 0 57 -10 68 -69 16 -85 15 -88
-40 -116 -51 -26 -63 -50 -41 -84 7 -11 13 -11 37 1 31 15 276 145 334 176 24
14 36 27 38 46 5 38 -11 52 -66 59 -26 4 -108 16 -182 27 -238 37 -220 36
-220 7z m364 -87 c5 -6 8 -11 5 -13 -12 -10 -157 -77 -166 -77 -14 0 -36 102
-23 110 14 8 173 -9 184 -20z"/>
<path d="M366 2928 c-11 -36 -26 -192 -19 -198 4 -4 60 -13 123 -20 63 -6 157
-18 208 -24 65 -9 95 -9 101 -2 5 6 11 43 15 81 13 123 13 120 -10 123 -19 3
-22 -3 -28 -45 -13 -88 -11 -86 -75 -80 -89 10 -90 10 -88 75 2 51 0 57 -18
57 -15 0 -21 -8 -23 -30 -6 -70 -10 -75 -51 -75 -21 0 -52 3 -68 6 -29 6 -29
6 -29 72 1 56 -2 67 -17 70 -9 2 -19 -2 -21 -10z"/>
<path d="M2843 2853 c-3 -10 -8 -21 -10 -25 -1 -3 6 -4 17 -1 11 3 20 14 20
24 0 24 -19 25 -27 2z"/>
<path d="M2839 2807 c-9 -7 -24 -28 -34 -47 -31 -60 -66 -100 -89 -100 -16 0
-13 -4 14 -17 19 -9 72 -55 117 -102 45 -47 84 -83 86 -81 3 3 14 23 26 45 25
47 27 81 6 89 -10 3 -14 15 -11 35 3 29 -15 48 -34 36 -4 -2 -19 7 -34 22 -27
27 -34 71 -14 91 9 9 7 13 -5 18 -9 3 -14 10 -11 15 7 12 2 11 -17 -4z"/>
<path d="M4332 2589 l3 -34 135 -8 c74 -4 144 -11 154 -15 16 -7 -8 -23 -120
-81 -157 -83 -194 -106 -194 -126 0 -29 -2 -28 343 -51 l107 -7 0 26 c0 14 -5
29 -11 33 -6 4 -73 9 -148 12 -75 2 -140 8 -144 12 -4 4 62 42 148 85 85 42
157 80 159 84 2 3 6 18 10 33 5 20 2 30 -11 36 -10 5 -88 12 -173 16 -85 4
-179 9 -208 12 l-53 6 3 -33z"/>
<path d="M670 2569 c-47 -4 -138 -11 -203 -15 -129 -8 -143 -15 -132 -64 l7
-30 66 6 c127 12 116 17 123 -51 3 -33 4 -65 1 -72 -2 -7 -39 -14 -93 -19
l-90 -7 3 -36 3 -36 110 4 c61 2 160 9 220 15 l110 11 0 35 0 35 -100 0 -100
0 -8 59 c-6 40 -5 62 3 70 6 6 50 13 98 16 l87 5 0 39 c0 22 -4 40 -10 41 -5
1 -48 -2 -95 -6z"/>
<path d="M2816 2453 c-3 -4 -6 -23 -6 -43 0 -46 -55 -114 -113 -140 -43 -20
-41 -24 18 -34 52 -9 169 -80 197 -119 18 -26 22 -46 24 -121 1 -50 -2 -101
-7 -113 -9 -25 -39 -31 -39 -9 0 8 -8 21 -17 28 -13 9 -18 27 -18 66 0 52 -17
78 -23 35 -2 -13 -8 -23 -14 -23 -5 0 -28 -14 -51 -32 -131 -104 -308 -155
-507 -144 -52 2 -82 2 -65 -1 16 -2 34 -11 40 -19 8 -12 33 -13 155 -4 80 5
190 15 245 21 75 8 113 8 152 -1 39 -8 57 -8 73 0 27 14 70 5 70 -15 0 -30 21
-25 35 9 10 24 22 36 35 36 11 0 22 -1 23 -2 2 -2 11 3 20 11 10 7 17 10 17 6
0 -4 7 -2 15 5 13 10 15 9 15 -9 0 -29 30 -27 53 4 10 14 14 25 10 25 -5 0 -9
9 -10 20 -1 11 2 18 8 15 5 -4 9 2 9 12 0 11 5 24 11 30 8 8 8 13 0 17 -18 11
-13 109 7 150 11 21 18 50 16 65 -1 14 -2 32 -3 39 -1 16 -21 16 -21 -1 0 -22
-35 -48 -54 -41 -14 5 -15 9 -4 15 11 8 11 11 -1 18 -15 9 -25 9 -54 -4 -32
-14 -67 10 -68 47 -1 18 -1 36 0 41 2 14 -19 7 -38 -15 l-21 -21 2 34 c2 49
-10 79 -31 79 -12 0 -21 10 -25 28 -6 27 -48 66 -60 55z"/>
<path d="M646 2069 c-93 -28 -175 -48 -182 -45 -8 3 -14 14 -14 24 0 10 -6 26
-13 35 -10 15 -15 16 -31 4 -17 -13 -17 -17 9 -118 31 -119 39 -133 65 -119
14 8 17 18 13 49 -4 32 -2 40 13 45 56 16 244 69 278 77 66 16 74 24 67 61 -4
18 -13 34 -21 35 -8 0 -91 -21 -184 -48z"/>
<path d="M4605 2082 c-147 -30 -144 -30 -288 6 -22 6 -39 6 -43 1 -3 -5 5 -9
18 -9 25 0 48 -17 48 -34 0 -6 -4 -4 -10 4 -5 8 -12 11 -17 7 -9 -10 17 -28
30 -20 4 3 16 -2 25 -10 9 -8 28 -17 42 -21 14 -3 48 -27 77 -53 28 -27 74
-67 101 -90 l50 -42 6 25 c5 18 0 31 -18 49 -14 14 -29 25 -33 25 -4 0 -25 17
-46 36 -48 45 -43 64 16 64 24 0 65 3 90 6 38 5 48 11 57 35 7 15 10 32 9 36
-2 5 -53 -2 -114 -15z"/>
<path d="M2868 2044 c-9 -9 3 -42 17 -48 21 -8 25 20 6 38 -10 9 -20 14 -23
10z"/>
<path d="M3453 1223 c-34 -17 -43 -30 -43 -64 0 -57 71 -78 115 -34 58 57 0
136 -72 98z"/>
<path d="M3552 1048 c-29 -20 -42 -36 -39 -47 3 -13 234 -368 254 -391 5 -6
62 25 97 53 l28 22 -92 135 c-50 74 -110 163 -133 197 -23 34 -49 62 -57 62
-8 0 -35 -14 -58 -31z"/>
<path d="M1395 1049 c-58 -30 -99 -74 -133 -138 -40 -76 -47 -120 -28 -185 12
-40 27 -64 62 -96 46 -43 126 -85 181 -96 27 -5 31 -3 36 23 3 15 8 35 12 44
4 12 -10 22 -60 43 -97 42 -141 109 -102 158 11 15 16 15 57 -5 25 -12 83 -39
128 -60 97 -44 95 -44 132 51 29 77 26 120 -12 178 -63 93 -185 130 -273 83z
m160 -94 c28 -27 30 -46 14 -94 -7 -19 -18 -31 -29 -31 -23 0 -127 48 -137 62
-10 17 75 88 104 88 13 0 35 -11 48 -25z"/>
<path d="M1842 913 c-17 -54 -40 -127 -51 -163 -11 -36 -34 -110 -52 -165 -53
-168 -53 -164 -14 -181 18 -7 51 -16 73 -20 41 -6 41 -6 51 34 6 22 22 75 36
118 14 43 25 85 25 93 0 9 3 11 9 6 9 -10 34 -132 46 -232 4 -28 12 -58 18
-67 15 -19 138 -59 149 -48 4 4 1 39 -8 77 -9 39 -19 88 -24 110 -14 68 -29
139 -35 161 -5 16 7 32 56 75 35 30 87 74 115 99 48 42 69 68 61 76 -2 2 -33
11 -70 21 l-67 18 -105 -105 c-116 -116 -123 -115 -81 7 13 38 27 87 30 109
l7 39 -59 18 c-32 9 -63 17 -69 17 -5 0 -24 -44 -41 -97z"/>
<path d="M3246 885 c-32 -13 -71 -35 -85 -49 -23 -22 -35 -25 -91 -25 -88 0
-205 -41 -264 -94 -20 -17 -20 -18 13 -120 85 -259 103 -314 110 -326 6 -10
20 -9 62 5 30 9 59 22 65 28 9 8 -3 57 -47 191 -33 98 -58 184 -55 190 2 6 21
16 42 23 64 19 75 5 133 -172 28 -85 54 -162 57 -171 5 -13 14 -15 40 -10 43
8 104 33 104 43 0 4 -27 85 -59 181 l-59 174 23 23 c26 26 76 32 93 11 13 -15
40 -90 83 -227 17 -58 37 -111 44 -118 9 -10 23 -8 73 10 62 22 70 33 53 66
-5 9 -31 82 -57 162 -26 80 -54 155 -62 167 -17 28 -89 63 -128 63 -16 0 -55
-11 -88 -25z"/>
<path d="M2406 740 c-92 -46 -130 -114 -130 -233 -1 -150 53 -229 175 -256
105 -24 211 39 244 145 25 81 17 197 -19 258 -56 95 -175 133 -270 86z m132
-93 c26 -31 35 -106 22 -185 -13 -86 -30 -112 -72 -112 -44 0 -68 47 -68 137
0 67 5 91 33 151 12 25 67 31 85 9z"/>
</g>
</svg>
